<svg width="193" height="99" viewBox="0 0 193 99" fill="none" xmlns="http://www.w3.org/2000/svg">
<path d="M0 0L186.006 11.0311L192.42 81.7121L9.67979e-05 99L0 0Z" fill="#F63D68"/>
<path d="M34.024 68.76C33.928 68.92 33.784 68.984 33.592 68.952C33.432 68.92 33.32 68.824 33.256 68.664C33.224 68.44 33.176 68.056 33.112 67.512C33.048 66.968 33 66.456 32.968 65.976C32.936 65.496 32.92 65.24 32.92 65.208C32.92 64.984 32.936 64.776 32.968 64.584C33.032 64.36 33.144 64.168 33.304 64.008C33.4 63.848 33.352 63.72 33.16 63.624C32.968 63.528 32.952 63.4 33.112 63.24C33.272 63.08 33.272 62.92 33.112 62.76C32.952 62.6 33 62.456 33.256 62.328C33.256 62.2 33.256 62.008 33.256 61.752C33.288 61.464 33.304 60.984 33.304 60.312C33.336 59.64 33.336 58.68 33.304 57.432C33.304 57.144 33.224 56.936 33.064 56.808C32.872 56.616 32.888 56.392 33.112 56.136C33.24 56.008 33.24 55.784 33.112 55.464C32.984 55.112 32.936 54.936 32.968 54.936C33.128 54.776 33.224 54.504 33.256 54.12C33.288 53.736 33.304 53.48 33.304 53.352C33.304 49.544 33.304 46.52 33.304 44.28C33.304 42.008 33.304 40.312 33.304 39.192C33.336 38.072 33.352 37.32 33.352 36.936C33.352 36.52 33.352 36.264 33.352 36.168C33.32 35.912 33.56 35.704 34.072 35.544C34.584 35.352 35.144 35.24 35.752 35.208C36.232 35.176 36.68 35.16 37.096 35.16C37.544 35.16 37.88 35.24 38.104 35.4C38.232 35.496 38.408 35.528 38.632 35.496C38.856 35.432 39.08 35.4 39.304 35.4C42.248 35.4 44.536 35.4 46.168 35.4C47.832 35.4 49.048 35.4 49.816 35.4C50.584 35.4 51.08 35.416 51.304 35.448C51.56 35.448 51.736 35.448 51.832 35.448C52.056 35.448 52.248 35.528 52.408 35.688C52.6 35.848 52.696 36.04 52.696 36.264C52.696 37.256 52.696 38.312 52.696 39.432C52.696 40.52 52.712 41.544 52.744 42.504C52.744 42.664 52.68 42.968 52.552 43.416C52.456 43.832 52.392 44.12 52.36 44.28C52.328 44.888 52.312 45.528 52.312 46.2C52.312 46.872 52.312 47.544 52.312 48.216C52.504 48.376 52.616 48.696 52.648 49.176C52.712 49.656 52.616 49.976 52.36 50.136C52.488 50.328 52.584 50.52 52.648 50.712C52.712 50.872 52.632 51.048 52.408 51.24C52.632 51.432 52.696 51.624 52.6 51.816C52.536 52.008 52.44 52.216 52.312 52.44C52.216 52.632 52.2 52.888 52.264 53.208C52.328 53.4 52.248 53.576 52.024 53.736C51.832 53.896 51.608 53.976 51.352 53.976C50.648 54.04 49.736 54.104 48.616 54.168C47.496 54.2 46.296 54.232 45.016 54.264C43.736 54.264 42.504 54.264 41.32 54.264C40.136 54.264 39.112 54.264 38.248 54.264C37.384 54.264 36.824 54.248 36.568 54.216C36.344 54.088 36.04 54.056 35.656 54.12C35.304 54.184 34.952 54.248 34.6 54.312C34.568 54.44 34.536 54.616 34.504 54.84C34.504 55.064 34.568 55.208 34.696 55.272C34.888 55.4 34.92 55.528 34.792 55.656C34.664 55.784 34.632 55.912 34.696 56.04C34.888 56.2 34.872 56.392 34.648 56.616C34.52 56.808 34.568 57.016 34.792 57.24C35.016 57.432 35.016 57.64 34.792 57.864C34.472 58.184 34.424 58.52 34.648 58.872C34.904 59.352 35 59.896 34.936 60.504C34.904 61.112 34.904 61.608 34.936 61.992C34.936 62.184 34.872 62.664 34.744 63.432C34.648 64.168 34.616 65.048 34.648 66.072C34.616 66.392 34.616 66.68 34.648 66.936C34.712 67.16 34.744 67.336 34.744 67.464C34.744 67.688 34.648 67.912 34.456 68.136C34.296 68.328 34.152 68.536 34.024 68.76ZM34.792 52.872C35.08 52.872 35.736 52.872 36.76 52.872C37.816 52.84 39.048 52.808 40.456 52.776C41.864 52.712 43.256 52.664 44.632 52.632C46.04 52.6 47.256 52.584 48.28 52.584C49.336 52.552 50.008 52.536 50.296 52.536C50.552 52.472 50.68 52.344 50.68 52.152C50.68 51.672 50.664 51.368 50.632 51.24C50.632 51.08 50.632 50.968 50.632 50.904C50.664 50.84 50.712 50.68 50.776 50.424C50.84 50.168 50.936 49.704 51.064 49.032C51.16 48.584 51.16 48.312 51.064 48.216C50.968 48.12 50.888 48.04 50.824 47.976C50.76 47.912 50.808 47.736 50.968 47.448C50.712 47.256 50.616 46.952 50.68 46.536C50.744 46.088 50.744 45.752 50.68 45.528C50.648 45.336 50.68 45.16 50.776 45C50.872 44.84 50.936 44.696 50.968 44.568C50.808 44.408 50.76 44.264 50.824 44.136C50.888 43.976 50.968 43.832 51.064 43.704C51.192 43.544 51.208 43.384 51.112 43.224C51.08 43.096 51.048 42.888 51.016 42.6C51.016 42.28 51.016 41.72 51.016 40.92C51.048 40.12 51.064 38.936 51.064 37.368C51.064 37.048 50.92 36.888 50.632 36.888C48.872 36.888 47.304 36.888 45.928 36.888C44.552 36.888 43.272 36.888 42.088 36.888C40.904 36.856 39.704 36.84 38.488 36.84C38.328 36.84 38.152 36.856 37.96 36.888C37.8 36.888 37.64 36.888 37.48 36.888C37.256 36.888 37.032 36.888 36.808 36.888C36.616 36.856 36.408 36.776 36.184 36.648C36.056 36.552 35.928 36.6 35.8 36.792C35.672 36.952 35.512 36.952 35.32 36.792C35.224 36.696 35.112 36.76 34.984 36.984C34.888 37.208 34.808 37.464 34.744 37.752C34.712 38.04 34.744 38.248 34.84 38.376C35 38.536 35 38.696 34.84 38.856C34.616 39.08 34.504 39.304 34.504 39.528C34.536 39.72 34.568 39.944 34.6 40.2C34.92 40.52 35.016 40.84 34.888 41.16C34.792 41.448 34.824 41.816 34.984 42.264C35.048 42.488 34.984 42.68 34.792 42.84C34.6 42.968 34.6 43.16 34.792 43.416C34.856 43.512 34.888 43.784 34.888 44.232C34.92 44.648 34.936 45.368 34.936 46.392C34.936 47.384 34.936 48.824 34.936 50.712C34.904 51.192 34.872 51.608 34.84 51.96C34.84 52.312 34.824 52.616 34.792 52.872ZM42.184 46.056L41.512 45.384C41.256 45.128 41.24 44.92 41.464 44.76C41.688 44.6 41.8 44.344 41.8 43.992C41.8 43.512 42.056 43.256 42.568 43.224C43.08 43.16 43.496 43.16 43.816 43.224C44.04 43.256 44.232 43.432 44.392 43.752C44.584 44.04 44.68 44.312 44.68 44.568C44.68 44.824 44.584 45.08 44.392 45.336C44.168 45.624 43.832 45.896 43.384 46.152C42.936 46.408 42.536 46.376 42.184 46.056ZM42.808 45.096C42.904 45.192 43.016 45.208 43.144 45.144C43.272 45.048 43.352 44.968 43.384 44.904C43.448 44.872 43.48 44.808 43.48 44.712C43.48 44.52 43.4 44.392 43.24 44.328C43.144 44.296 43.032 44.296 42.904 44.328C42.776 44.328 42.712 44.392 42.712 44.52C42.712 44.648 42.68 44.728 42.616 44.76C42.552 44.792 42.552 44.84 42.616 44.904L42.808 45.096ZM66.9081 69.192C66.3001 69.192 65.5001 69.128 64.5081 69C63.5161 68.84 62.5241 68.744 61.5321 68.712C60.5401 68.68 59.7401 68.808 59.1321 69.096C58.8761 68.936 58.4761 68.856 57.9321 68.856C57.4201 68.856 56.8921 68.888 56.3481 68.952C55.8361 68.984 55.4201 69.016 55.1001 69.048H54.4761C53.6761 69.048 53.1001 68.936 52.7481 68.712C52.4281 68.456 52.2681 68.168 52.2681 67.848C52.2681 67.144 52.7321 66.456 53.6601 65.784C54.0121 65.528 54.3481 65.256 54.6681 64.968C54.9881 64.648 55.3401 64.328 55.7241 64.008C56.1401 63.496 56.6201 63.064 57.1641 62.712C57.7401 62.36 58.2841 62.04 58.7961 61.752C59.3401 61.432 59.7561 61.08 60.0441 60.696C60.6201 59.992 61.2921 59.432 62.0601 59.016C62.8281 58.568 63.5161 58.088 64.1241 57.576C64.7001 57.096 65.2601 56.616 65.8041 56.136C66.3801 55.656 66.9561 55.16 67.5321 54.648C67.8201 54.392 68.1721 54.152 68.5881 53.928C69.0041 53.672 69.5321 53.432 70.1721 53.208C70.4601 52.888 70.7801 52.68 71.1321 52.584C71.5161 52.456 71.8361 52.312 72.0921 52.152C72.3801 51.992 72.5241 51.688 72.5241 51.24C72.5241 50.824 72.4121 50.312 72.1881 49.704C71.9961 49.096 71.5961 48.792 70.9881 48.792C70.8601 48.792 70.4601 48.808 69.7881 48.84C69.1481 48.872 68.4921 48.92 67.8201 48.984C67.1801 49.016 66.7641 49.032 66.5721 49.032C66.2841 49.032 65.9801 49.016 65.6601 48.984C65.3721 48.92 65.0841 48.808 64.7961 48.648C64.6361 48.584 64.4281 48.568 64.1721 48.6C63.9161 48.6 63.6601 48.6 63.4041 48.6C62.8281 48.664 62.4441 48.696 62.2521 48.696C62.0921 48.664 61.7081 48.632 61.1001 48.6C60.8761 48.6 60.6521 48.632 60.4281 48.696C60.2361 48.728 60.0121 48.776 59.7561 48.84C59.1481 48.936 58.7321 49 58.5081 49.032C58.3161 49.064 58.1561 49.08 58.0281 49.08C57.7081 49.08 57.4041 49.016 57.1161 48.888C56.8281 48.728 56.5401 48.616 56.2521 48.552C56.1241 48.52 56.0601 48.408 56.0601 48.216C56.0921 48.024 56.1561 47.912 56.2521 47.88C56.5401 47.816 56.7481 47.704 56.8761 47.544C57.0361 47.384 57.2761 47.304 57.5961 47.304C57.7881 47.304 58.3001 47.32 59.1321 47.352C59.9961 47.352 61.0041 47.352 62.1561 47.352C63.3401 47.352 64.5081 47.352 65.6601 47.352C66.8121 47.352 67.7881 47.352 68.5881 47.352C69.4201 47.352 69.9001 47.336 70.0281 47.304C70.9241 47.144 71.6761 47.112 72.2841 47.208C72.8921 47.272 73.2601 47.432 73.3881 47.688C73.5481 47.816 73.6601 48.072 73.7241 48.456C73.7881 48.84 73.8201 49.224 73.8201 49.608C73.8201 51.368 73.8361 52.776 73.8681 53.832C73.9001 54.888 73.9321 55.768 73.9641 56.472C73.9961 57.176 74.0121 57.832 74.0121 58.44C74.0121 59.048 73.9961 59.768 73.9641 60.6C73.9641 61.4 73.9161 62.472 73.8201 63.816C73.7881 64.04 73.7721 64.264 73.7721 64.488C73.7721 64.712 73.7721 64.936 73.7721 65.16C73.7721 65.48 73.7881 65.784 73.8201 66.072C73.8521 66.328 73.9321 66.6 74.0601 66.888C73.9321 67.432 73.7721 67.896 73.5801 68.28C73.4201 68.664 73.0841 68.84 72.5721 68.808C71.9641 68.776 71.5321 68.776 71.2761 68.808C71.0201 68.84 70.8121 68.888 70.6521 68.952C70.5241 68.984 70.3321 69.016 70.0761 69.048C69.8521 69.08 69.4361 69.096 68.8281 69.096C68.5081 69.096 68.1881 69.112 67.8681 69.144C67.5481 69.176 67.2281 69.192 66.9081 69.192ZM59.0841 67.752C59.3721 67.592 59.8521 67.48 60.5241 67.416C61.1961 67.352 61.9161 67.336 62.6841 67.368C63.4841 67.368 64.2041 67.384 64.8441 67.416C65.5161 67.448 65.9961 67.464 66.2841 67.464C66.8601 67.464 67.4361 67.464 68.0121 67.464C68.6201 67.464 69.2121 67.448 69.7881 67.416C70.0441 67.416 70.3641 67.4 70.7481 67.368C71.1641 67.304 71.5321 67.144 71.8521 66.888C72.1721 66.632 72.3161 66.184 72.2841 65.544C72.2521 64.872 72.2361 63.992 72.2361 62.904C72.2361 61.816 72.2361 60.664 72.2361 59.448C72.2681 58.2 72.3001 57.032 72.3321 55.944C72.3961 54.856 72.4601 53.976 72.5241 53.304C72.2361 53.784 71.7721 54.152 71.1321 54.408C70.4921 54.632 69.8681 54.872 69.2601 55.128C68.6521 55.352 68.2201 55.72 67.9641 56.232C67.2281 56.808 66.5241 57.448 65.8521 58.152C65.2121 58.856 64.4601 59.368 63.5961 59.688C63.3721 59.784 63.1321 59.96 62.8761 60.216C62.6201 60.44 62.3801 60.664 62.1561 60.888C61.7081 61.336 61.0841 61.832 60.2841 62.376C59.5161 62.92 58.7641 63.432 58.0281 63.912C57.2921 64.392 56.7801 64.76 56.4921 65.016C56.3961 65.08 56.2201 65.256 55.9641 65.544C55.7401 65.8 55.5161 66.088 55.2921 66.408C55.0681 66.696 54.9241 66.952 54.8601 67.176C54.8281 67.4 54.9561 67.512 55.2441 67.512C55.4681 67.512 55.8361 67.496 56.3481 67.464C56.8601 67.432 57.3721 67.432 57.8841 67.464C58.4281 67.496 58.8281 67.592 59.0841 67.752ZM65.9961 64.248C65.4201 64.248 65.0201 64.056 64.7961 63.672C64.5721 63.256 64.4601 62.936 64.4601 62.712C64.4601 62.328 64.6201 62.008 64.9401 61.752C65.2921 61.464 65.7721 61.32 66.3801 61.32C66.7001 61.256 66.9561 61.288 67.1481 61.416C67.3721 61.544 67.5801 61.736 67.7721 61.992C68.0281 62.344 68.0281 62.712 67.7721 63.096C67.5481 63.32 67.2761 63.576 66.9561 63.864C66.6681 64.12 66.3481 64.248 65.9961 64.248ZM66.1401 63.144C66.3641 63.144 66.5241 63.032 66.6201 62.808C66.6841 62.744 66.6841 62.648 66.6201 62.52C66.4921 62.392 66.3801 62.344 66.2841 62.376C65.9641 62.376 65.8041 62.488 65.8041 62.712C65.8041 62.744 65.8201 62.824 65.8521 62.952C65.9161 63.08 66.0121 63.144 66.1401 63.144ZM92.08 69.192C91.472 69.192 90.672 69.128 89.68 69C88.688 68.84 87.696 68.744 86.704 68.712C85.712 68.68 84.912 68.808 84.304 69.096C84.048 68.936 83.648 68.856 83.104 68.856C82.592 68.856 82.064 68.888 81.52 68.952C81.008 68.984 80.592 69.016 80.272 69.048H79.648C78.848 69.048 78.272 68.936 77.92 68.712C77.6 68.456 77.44 68.168 77.44 67.848C77.44 67.144 77.904 66.456 78.832 65.784C79.184 65.528 79.52 65.256 79.84 64.968C80.16 64.648 80.512 64.328 80.896 64.008C81.312 63.496 81.792 63.064 82.336 62.712C82.912 62.36 83.456 62.04 83.968 61.752C84.512 61.432 84.928 61.08 85.216 60.696C85.792 59.992 86.464 59.432 87.232 59.016C88 58.568 88.688 58.088 89.296 57.576C89.872 57.096 90.432 56.616 90.976 56.136C91.552 55.656 92.128 55.16 92.704 54.648C92.992 54.392 93.344 54.152 93.76 53.928C94.176 53.672 94.704 53.432 95.344 53.208C95.632 52.888 95.952 52.68 96.304 52.584C96.688 52.456 97.008 52.312 97.264 52.152C97.552 51.992 97.696 51.688 97.696 51.24C97.696 50.824 97.584 50.312 97.36 49.704C97.168 49.096 96.768 48.792 96.16 48.792C96.032 48.792 95.632 48.808 94.96 48.84C94.32 48.872 93.664 48.92 92.992 48.984C92.352 49.016 91.936 49.032 91.744 49.032C91.456 49.032 91.152 49.016 90.832 48.984C90.544 48.92 90.256 48.808 89.968 48.648C89.808 48.584 89.6 48.568 89.344 48.6C89.088 48.6 88.832 48.6 88.576 48.6C88 48.664 87.616 48.696 87.424 48.696C87.264 48.664 86.88 48.632 86.272 48.6C86.048 48.6 85.824 48.632 85.6 48.696C85.408 48.728 85.184 48.776 84.928 48.84C84.32 48.936 83.904 49 83.68 49.032C83.488 49.064 83.328 49.08 83.2 49.08C82.88 49.08 82.576 49.016 82.288 48.888C82 48.728 81.712 48.616 81.424 48.552C81.296 48.52 81.232 48.408 81.232 48.216C81.264 48.024 81.328 47.912 81.424 47.88C81.712 47.816 81.92 47.704 82.048 47.544C82.208 47.384 82.448 47.304 82.768 47.304C82.96 47.304 83.472 47.32 84.304 47.352C85.168 47.352 86.176 47.352 87.328 47.352C88.512 47.352 89.68 47.352 90.832 47.352C91.984 47.352 92.96 47.352 93.76 47.352C94.592 47.352 95.072 47.336 95.2 47.304C96.096 47.144 96.848 47.112 97.456 47.208C98.064 47.272 98.432 47.432 98.56 47.688C98.72 47.816 98.832 48.072 98.896 48.456C98.96 48.84 98.992 49.224 98.992 49.608C98.992 51.368 99.008 52.776 99.04 53.832C99.072 54.888 99.104 55.768 99.136 56.472C99.168 57.176 99.184 57.832 99.184 58.44C99.184 59.048 99.168 59.768 99.136 60.6C99.136 61.4 99.088 62.472 98.992 63.816C98.96 64.04 98.944 64.264 98.944 64.488C98.944 64.712 98.944 64.936 98.944 65.16C98.944 65.48 98.96 65.784 98.992 66.072C99.024 66.328 99.104 66.6 99.232 66.888C99.104 67.432 98.944 67.896 98.752 68.28C98.592 68.664 98.256 68.84 97.744 68.808C97.136 68.776 96.704 68.776 96.448 68.808C96.192 68.84 95.984 68.888 95.824 68.952C95.696 68.984 95.504 69.016 95.248 69.048C95.024 69.08 94.608 69.096 94 69.096C93.68 69.096 93.36 69.112 93.04 69.144C92.72 69.176 92.4 69.192 92.08 69.192ZM84.256 67.752C84.544 67.592 85.024 67.48 85.696 67.416C86.368 67.352 87.088 67.336 87.856 67.368C88.656 67.368 89.376 67.384 90.016 67.416C90.688 67.448 91.168 67.464 91.456 67.464C92.032 67.464 92.608 67.464 93.184 67.464C93.792 67.464 94.384 67.448 94.96 67.416C95.216 67.416 95.536 67.4 95.92 67.368C96.336 67.304 96.704 67.144 97.024 66.888C97.344 66.632 97.488 66.184 97.456 65.544C97.424 64.872 97.408 63.992 97.408 62.904C97.408 61.816 97.408 60.664 97.408 59.448C97.44 58.2 97.472 57.032 97.504 55.944C97.568 54.856 97.632 53.976 97.696 53.304C97.408 53.784 96.944 54.152 96.304 54.408C95.664 54.632 95.04 54.872 94.432 55.128C93.824 55.352 93.392 55.72 93.136 56.232C92.4 56.808 91.696 57.448 91.024 58.152C90.384 58.856 89.632 59.368 88.768 59.688C88.544 59.784 88.304 59.96 88.048 60.216C87.792 60.44 87.552 60.664 87.328 60.888C86.88 61.336 86.256 61.832 85.456 62.376C84.688 62.92 83.936 63.432 83.2 63.912C82.464 64.392 81.952 64.76 81.664 65.016C81.568 65.08 81.392 65.256 81.136 65.544C80.912 65.8 80.688 66.088 80.464 66.408C80.24 66.696 80.096 66.952 80.032 67.176C80 67.4 80.128 67.512 80.416 67.512C80.64 67.512 81.008 67.496 81.52 67.464C82.032 67.432 82.544 67.432 83.056 67.464C83.6 67.496 84 67.592 84.256 67.752ZM91.168 64.248C90.592 64.248 90.192 64.056 89.968 63.672C89.744 63.256 89.632 62.936 89.632 62.712C89.632 62.328 89.792 62.008 90.112 61.752C90.464 61.464 90.944 61.32 91.552 61.32C91.872 61.256 92.128 61.288 92.32 61.416C92.544 61.544 92.752 61.736 92.944 61.992C93.2 62.344 93.2 62.712 92.944 63.096C92.72 63.32 92.448 63.576 92.128 63.864C91.84 64.12 91.52 64.248 91.168 64.248ZM91.312 63.144C91.536 63.144 91.696 63.032 91.792 62.808C91.856 62.744 91.856 62.648 91.792 62.52C91.664 62.392 91.552 62.344 91.456 62.376C91.136 62.376 90.976 62.488 90.976 62.712C90.976 62.744 90.992 62.824 91.024 62.952C91.088 63.08 91.184 63.144 91.312 63.144ZM110.004 69.432C109.428 69.432 108.996 69.336 108.708 69.144C108.548 68.984 108.436 68.84 108.372 68.712C108.308 68.552 108.26 68.424 108.228 68.328V48.984C107.332 48.952 106.42 48.984 105.492 49.08C104.596 49.176 103.844 49.224 103.236 49.224C102.82 49.224 102.436 49.128 102.084 48.936C101.604 48.456 101.508 48.088 101.796 47.832C102.084 47.576 102.564 47.448 103.236 47.448H108.228V40.536C108.228 39.8 108.34 39.336 108.564 39.144C108.788 38.952 109.108 38.936 109.524 39.096C109.684 39.128 109.764 39.448 109.764 40.056C109.764 40.376 109.748 40.84 109.716 41.448C109.684 42.056 109.668 43.144 109.668 44.712V47.448H115.716C115.972 47.448 116.196 47.56 116.388 47.784C116.58 48.008 116.676 48.2 116.676 48.36C116.676 48.552 116.484 48.776 116.1 49.032C115.716 49.256 115.364 49.368 115.044 49.368C114.98 49.336 114.9 49.32 114.804 49.32C114.708 49.32 114.628 49.32 114.564 49.32C114.244 49.256 113.764 49.208 113.124 49.176C112.484 49.112 111.844 49.064 111.204 49.032C110.564 49 110.052 48.984 109.668 48.984C109.732 49.112 109.764 49.56 109.764 50.328C109.796 51.096 109.812 52.024 109.812 53.112C109.844 54.168 109.86 55.224 109.86 56.28C109.892 57.336 109.908 58.232 109.908 58.968C109.908 59.704 109.908 60.104 109.908 60.168C109.908 61.736 109.908 63.064 109.908 64.152C109.94 65.24 109.924 66.44 109.86 67.752C109.924 67.752 110.132 67.576 110.484 67.224C110.868 66.872 111.284 66.456 111.732 65.976C112.212 65.496 112.612 65.096 112.932 64.776C113.124 64.552 113.412 64.264 113.796 63.912C114.212 63.56 114.532 63.272 114.756 63.048C115.268 62.44 115.636 61.992 115.86 61.704C116.116 61.384 116.356 61.224 116.58 61.224L116.676 61.704C116.996 61.832 117.124 62.024 117.06 62.28C117.028 62.536 116.932 62.792 116.772 63.048C116.58 63.4 116.356 63.704 116.1 63.96C115.876 64.184 115.572 64.44 115.188 64.728C115.092 64.792 114.98 64.936 114.852 65.16C114.724 65.384 114.596 65.56 114.468 65.688C113.956 66.104 113.412 66.6 112.836 67.176C112.26 67.752 111.716 68.264 111.204 68.712C110.692 69.16 110.292 69.4 110.004 69.432ZM120.938 69C120.458 68.904 120.138 68.776 119.978 68.616C119.85 68.456 119.754 68.2 119.69 67.848C119.626 67.464 119.594 67.08 119.594 66.696V52.488C119.594 52.232 119.594 52.008 119.594 51.816C119.626 51.592 119.642 51.368 119.642 51.144C119.642 50.6 119.594 50.04 119.498 49.464C119.434 48.888 119.466 48.408 119.594 48.024C119.754 47.64 120.138 47.464 120.746 47.496C121.258 47.496 121.626 47.496 121.85 47.496C122.074 47.496 122.33 47.496 122.618 47.496C122.906 47.496 123.418 47.496 124.154 47.496C124.442 47.496 124.73 47.48 125.018 47.448C125.338 47.416 125.642 47.4 125.93 47.4C126.378 47.4 127.066 47.4 127.994 47.4C128.954 47.4 129.962 47.4 131.018 47.4C132.106 47.4 133.066 47.4 133.898 47.4C134.73 47.4 135.258 47.384 135.482 47.352H136.058C136.794 47.352 137.306 47.464 137.594 47.688C137.914 47.912 138.074 48.2 138.074 48.552C138.074 49.192 137.658 49.848 136.826 50.52C136.506 50.744 136.122 51 135.674 51.288C135.226 51.576 134.826 51.896 134.474 52.248C133.898 53.016 133.386 53.528 132.938 53.784C132.522 54.04 132.106 54.456 131.69 55.032C131.178 55.736 130.57 56.312 129.866 56.76C129.162 57.208 128.57 57.752 128.09 58.392C127.642 58.968 127.13 59.384 126.554 59.64C125.978 59.864 125.418 60.296 124.874 60.936C124.65 61.256 124.41 61.56 124.154 61.848C123.93 62.104 123.53 62.456 122.954 62.904C122.698 63.224 122.426 63.464 122.138 63.624C121.85 63.752 121.61 63.912 121.418 64.104C121.258 64.296 121.178 64.616 121.178 65.064C121.178 65.48 121.146 65.944 121.082 66.456C121.05 66.968 121.162 67.224 121.418 67.224C121.514 67.224 121.77 67.224 122.186 67.224C122.602 67.224 123.082 67.224 123.626 67.224C124.17 67.192 124.65 67.176 125.066 67.176C125.514 67.176 125.802 67.176 125.93 67.176C126.186 67.176 126.506 67.176 126.89 67.176C127.306 67.144 127.642 67.208 127.898 67.368C128.058 67.432 128.25 67.464 128.474 67.464C128.698 67.432 128.922 67.416 129.146 67.416C129.69 67.352 130.186 67.336 130.634 67.368C131.114 67.368 131.626 67.384 132.17 67.416C132.33 67.416 132.714 67.416 133.322 67.416C133.93 67.384 134.538 67.352 135.146 67.32C135.754 67.288 136.122 67.24 136.25 67.176C136.378 67.08 136.666 67.112 137.114 67.272C137.562 67.4 137.834 67.544 137.93 67.704C138.026 67.864 138.026 68.12 137.93 68.472C137.834 68.824 137.642 69 137.354 69C137.226 69 136.794 69 136.058 69C135.354 69 134.474 69 133.418 69C132.362 69 131.258 69 130.106 69C128.954 69 127.85 69 126.794 69C125.77 69 124.906 69 124.202 69C123.53 69 123.146 69 123.05 69C122.186 69.096 121.482 69.096 120.938 69ZM121.13 62.28C121.386 61.8 121.738 61.432 122.186 61.176C122.634 60.92 123.082 60.664 123.53 60.408C123.978 60.152 124.314 59.768 124.538 59.256C125.21 58.68 125.818 58.088 126.362 57.48C126.938 56.84 127.626 56.36 128.426 56.04C128.65 55.944 128.874 55.784 129.098 55.56C129.322 55.304 129.546 55.064 129.77 54.84C130.378 54.168 131.098 53.496 131.93 52.824C132.762 52.152 133.37 51.624 133.754 51.24C133.85 51.176 134.026 51.016 134.282 50.76C134.538 50.504 134.794 50.232 135.05 49.944C135.338 49.624 135.514 49.352 135.578 49.128C135.674 48.904 135.594 48.792 135.338 48.792C134.698 48.792 133.802 48.792 132.65 48.792C131.498 48.792 130.346 48.808 129.194 48.84C128.074 48.84 127.178 48.84 126.506 48.84C125.994 48.84 125.466 48.84 124.922 48.84C124.378 48.84 123.834 48.856 123.29 48.888C123.066 48.888 122.762 48.92 122.378 48.984C121.994 49.016 121.658 49.16 121.37 49.416C121.114 49.672 120.986 50.12 120.986 50.76C121.018 51.432 121.05 52.28 121.082 53.304C121.114 54.328 121.146 55.4 121.178 56.52C121.21 57.64 121.226 58.712 121.226 59.736C121.226 60.76 121.194 61.608 121.13 62.28ZM127.13 53.88C126.81 54.2 126.41 54.232 125.93 53.976C125.482 53.72 125.146 53.448 124.922 53.16C124.73 52.904 124.634 52.648 124.634 52.392C124.634 52.136 124.714 51.864 124.874 51.576C125.066 51.256 125.274 51.08 125.498 51.048C125.85 50.984 126.266 50.984 126.746 51.048C127.258 51.08 127.514 51.336 127.514 51.816C127.514 52.168 127.626 52.424 127.85 52.584C128.074 52.744 128.058 52.952 127.802 53.208L127.13 53.88ZM126.506 52.92L126.698 52.728C126.762 52.664 126.762 52.616 126.698 52.584C126.634 52.552 126.602 52.472 126.602 52.344C126.602 52.216 126.538 52.152 126.41 52.152C126.282 52.12 126.17 52.12 126.074 52.152C125.914 52.216 125.834 52.344 125.834 52.536C125.834 52.632 125.866 52.696 125.93 52.728C125.994 52.792 126.074 52.872 126.17 52.968C126.298 53.032 126.41 53.016 126.506 52.92ZM142.407 69C141.927 68.904 141.607 68.776 141.447 68.616C141.319 68.456 141.223 68.2 141.159 67.848C141.095 67.464 141.063 67.08 141.063 66.696V52.488C141.063 52.232 141.063 52.008 141.063 51.816C141.095 51.592 141.111 51.368 141.111 51.144C141.111 50.6 141.063 50.04 140.967 49.464C140.903 48.888 140.935 48.408 141.063 48.024C141.223 47.64 141.607 47.464 142.215 47.496C142.727 47.496 143.095 47.496 143.319 47.496C143.543 47.496 143.799 47.496 144.087 47.496C144.375 47.496 144.887 47.496 145.623 47.496C145.911 47.496 146.199 47.48 146.487 47.448C146.807 47.416 147.111 47.4 147.399 47.4C147.847 47.4 148.535 47.4 149.463 47.4C150.423 47.4 151.431 47.4 152.487 47.4C153.575 47.4 154.535 47.4 155.367 47.4C156.199 47.4 156.727 47.384 156.951 47.352H157.527C158.263 47.352 158.775 47.464 159.063 47.688C159.383 47.912 159.543 48.2 159.543 48.552C159.543 49.192 159.127 49.848 158.295 50.52C157.975 50.744 157.591 51 157.143 51.288C156.695 51.576 156.295 51.896 155.943 52.248C155.367 53.016 154.855 53.528 154.407 53.784C153.991 54.04 153.575 54.456 153.159 55.032C152.647 55.736 152.039 56.312 151.335 56.76C150.631 57.208 150.039 57.752 149.559 58.392C149.111 58.968 148.599 59.384 148.023 59.64C147.447 59.864 146.887 60.296 146.343 60.936C146.119 61.256 145.879 61.56 145.623 61.848C145.399 62.104 144.999 62.456 144.423 62.904C144.167 63.224 143.895 63.464 143.607 63.624C143.319 63.752 143.079 63.912 142.887 64.104C142.727 64.296 142.647 64.616 142.647 65.064C142.647 65.48 142.615 65.944 142.551 66.456C142.519 66.968 142.631 67.224 142.887 67.224C142.983 67.224 143.239 67.224 143.655 67.224C144.071 67.224 144.551 67.224 145.095 67.224C145.639 67.192 146.119 67.176 146.535 67.176C146.983 67.176 147.271 67.176 147.399 67.176C147.655 67.176 147.975 67.176 148.359 67.176C148.775 67.144 149.111 67.208 149.367 67.368C149.527 67.432 149.719 67.464 149.943 67.464C150.167 67.432 150.391 67.416 150.615 67.416C151.159 67.352 151.655 67.336 152.103 67.368C152.583 67.368 153.095 67.384 153.639 67.416C153.799 67.416 154.183 67.416 154.791 67.416C155.399 67.384 156.007 67.352 156.615 67.32C157.223 67.288 157.591 67.24 157.719 67.176C157.847 67.08 158.135 67.112 158.583 67.272C159.031 67.4 159.303 67.544 159.399 67.704C159.495 67.864 159.495 68.12 159.399 68.472C159.303 68.824 159.111 69 158.823 69C158.695 69 158.263 69 157.527 69C156.823 69 155.943 69 154.887 69C153.831 69 152.727 69 151.575 69C150.423 69 149.319 69 148.263 69C147.239 69 146.375 69 145.671 69C144.999 69 144.615 69 144.519 69C143.655 69.096 142.951 69.096 142.407 69ZM142.599 62.28C142.855 61.8 143.207 61.432 143.655 61.176C144.103 60.92 144.551 60.664 144.999 60.408C145.447 60.152 145.783 59.768 146.007 59.256C146.679 58.68 147.287 58.088 147.831 57.48C148.407 56.84 149.095 56.36 149.895 56.04C150.119 55.944 150.343 55.784 150.567 55.56C150.791 55.304 151.015 55.064 151.239 54.84C151.847 54.168 152.567 53.496 153.399 52.824C154.231 52.152 154.839 51.624 155.223 51.24C155.319 51.176 155.495 51.016 155.751 50.76C156.007 50.504 156.263 50.232 156.519 49.944C156.807 49.624 156.983 49.352 157.047 49.128C157.143 48.904 157.063 48.792 156.807 48.792C156.167 48.792 155.271 48.792 154.119 48.792C152.967 48.792 151.815 48.808 150.663 48.84C149.543 48.84 148.647 48.84 147.975 48.84C147.463 48.84 146.935 48.84 146.391 48.84C145.847 48.84 145.303 48.856 144.759 48.888C144.535 48.888 144.231 48.92 143.847 48.984C143.463 49.016 143.127 49.16 142.839 49.416C142.583 49.672 142.455 50.12 142.455 50.76C142.487 51.432 142.519 52.28 142.551 53.304C142.583 54.328 142.615 55.4 142.647 56.52C142.679 57.64 142.695 58.712 142.695 59.736C142.695 60.76 142.663 61.608 142.599 62.28ZM148.599 53.88C148.279 54.2 147.879 54.232 147.399 53.976C146.951 53.72 146.615 53.448 146.391 53.16C146.199 52.904 146.103 52.648 146.103 52.392C146.103 52.136 146.183 51.864 146.343 51.576C146.535 51.256 146.743 51.08 146.967 51.048C147.319 50.984 147.735 50.984 148.215 51.048C148.727 51.08 148.983 51.336 148.983 51.816C148.983 52.168 149.095 52.424 149.319 52.584C149.543 52.744 149.527 52.952 149.271 53.208L148.599 53.88ZM147.975 52.92L148.167 52.728C148.231 52.664 148.231 52.616 148.167 52.584C148.103 52.552 148.071 52.472 148.071 52.344C148.071 52.216 148.007 52.152 147.879 52.152C147.751 52.12 147.639 52.12 147.543 52.152C147.383 52.216 147.303 52.344 147.303 52.536C147.303 52.632 147.335 52.696 147.399 52.728C147.463 52.792 147.543 52.872 147.639 52.968C147.767 53.032 147.879 53.016 147.975 52.92Z" fill="white"/>
</svg>
